#N canvas 649 90 757 555 12;
#X obj 134 420 noteout;
#X obj 121 221 unpack f f f;
#X floatatom 150 287 5 0 0 0 - - - 0;
#X obj 92 168 route note;
#X floatatom 204 296 5 0 0 0 - - - 0;
#X floatatom 399 306 5 0 0 0 - - - 0;
#X obj 252 153 print;
#X obj 117 70 netreceive -u -b 5007;
#X obj 225 110 fudiparse;
#X obj 151 334 makenote;
#X connect 1 0 2 0;
#X connect 1 1 4 0;
#X connect 1 2 5 0;
#X connect 2 0 9 0;
#X connect 3 0 1 0;
#X connect 4 0 9 1;
#X connect 5 0 9 2;
#X connect 7 0 8 0;
#X connect 8 0 6 0;
#X connect 8 0 3 0;
#X connect 9 0 0 0;
#X connect 9 1 0 1;
